<svg height='300px' width='300px'  fill="#000000" xmlns="http://www.w3.org/2000/svg" xmlns:xlink="http://www.w3.org/1999/xlink" xml:space="preserve" version="1.1" style="shape-rendering:geometricPrecision;text-rendering:geometricPrecision;image-rendering:optimizeQuality;" viewBox="0 0 11028 11028" x="0px" y="0px" fill-rule="evenodd" clip-rule="evenodd"><defs><style type="text/css">
   
    .fil0 {fill:#000000}
   
  </style></defs><g><path class="fil0" d="M3398 3165l4232 0 0 1506 -902 -475c-17,-9 -33,-16 -51,-24 -391,-151 -843,-99 -1093,270 -286,421 -103,961 282,1246 4,4 8,7 13,10l1751 1212 0 853c-217,351 -193,775 0,1117l0 253 -4232 0 0 -5968zm6220 0l1410 0 0 2699c-307,-18 -635,4 -918,113l-492 -259 0 -2553zm-6776 -3165l5344 0c367,0 667,300 667,666l0 4649 -652 -343 0 -3421 -5374 0 0 7926 5374 0 0 -9 652 618 0 276c0,366 -300,666 -667,666l-5344 0c-367,0 -667,-300 -667,-666l0 -9696c0,-366 300,-666 667,-666zm2672 9903c207,0 374,167 374,374 0,207 -167,374 -374,374 -207,0 -374,-167 -374,-374 0,-207 167,-374 374,-374zm-637 -9264l1274 0c179,0 179,271 0,271l-1274 0c-179,0 -179,-271 0,-271zm3324 6666l0 23c8,-2 16,-5 24,-7l-24 -16zm1909 -769c206,-159 553,-201 918,-177l0 4669 -564 0c-246,-185 -483,-419 -646,-707l-1473 -1397c-646,-364 -402,-1338 365,-1105l1059 777 -454 -1121 -3155 -2183c-413,-308 -215,-874 338,-659l3612 1903zm-10110 -3371l1410 0 0 5968 -1410 0 0 -5968zm6975 -553l-939 0 0 -473 939 0 0 -352 865 588 -865 589 0 -352zm-2922 0l939 0 0 -473 -939 0 0 -352 -865 588 865 589 0 -352z"></path></g></svg>