<svg height='300px' width='300px'  fill="#000000" xmlns="http://www.w3.org/2000/svg" xmlns:xlink="http://www.w3.org/1999/xlink" version="1.1" x="0px" y="0px" viewBox="0 0 128 128" style="enable-background:new 0 0 128 128;" xml:space="preserve"><g><path d="M107,24H20c-2.2002125,0-4,1.7998009-4,4v12c0,2.2001991,1.7997875,4,4,4h87c2.2001877,0,4-1.7998009,4-4V28   C111,25.7998009,109.2001877,24,107,24z"></path><path d="M74,48H53c-1.4687119,0-2.7461128,0.8115005-3.4414139,2h27.8827972C76.7460861,48.8115005,75.4687881,48,74,48z"></path><path d="M29,62c0-6.6166992,5.3827896-12,12-12h3.4413872C43.7460861,48.8115005,42.4687881,48,41,48H20   c-2.2002125,0-4,1.7998009-4,4v8c0,2.2001991,1.7997875,4,4,4h9V62z"></path><path d="M120,76h-16c-4.4004135,0-8,3.6000977-8,8v36c0,4.3999023,3.5995865,8,8,8h16c4.400383,0,8-3.6000977,8-8V84   C128,79.6000977,124.400383,76,120,76z"></path><path d="M56,124.3330002H2c-1.1045113,0-2,0.8955002-2,2s0.8954887,1.9999924,2,1.9999924h54c1.1044884,0,2-0.8954926,2-1.9999924   S57.1044884,124.3330002,56,124.3330002z"></path><path d="M18,72h11v-4H18c-1.1045113,0-2,0.8955002-2,2S16.8954887,72,18,72z"></path><path d="M110.4980011,50.1035004C109.8173828,48.8588982,108.5116882,48,107,48H86c-1.4687119,0-2.7461166,0.8115005-3.4414139,2   H109C109.5077896,50,110.0058823,50.0419998,110.4980011,50.1035004z"></path><path d="M118,0H10C4.4862885,0,0,4.4858398,0,10v70c0,0.1757965,0.0302888,0.3427963,0.0722888,0.5048981   c-0.1122888,0.4492035-0.0752,0.9375,0.1445,1.3799057C2.3144886,80.0907974,5.0302887,79.0005035,8,79.0005035h21v-0.4468002   l-5.5771122-3.2778015c-0.625-0.3682022-1.4013996-0.3676987-2.0284004,0.0004959l-5.7831993,3.4033051l-5.7889996-3.403801   c-0.625-0.3682022-1.4013996-0.3676987-2.0264001-0.0005035l-6.8085995,4L4,77.5054016V20h120v52.7002029   c1.491188,0.5298004,2.8446884,1.3436966,4,2.3808975V10C128,4.4858398,123.5136871,0,118,0z M102,11.9843998   c-1.1035156,0-2-0.8955002-2-1.9995394c0-1.1049805,0.8964844-2.0004807,2-2.0004807c1.1034851,0,2,0.8955002,2,2.0004807   C104,11.0888996,103.1034851,11.9843998,102,11.9843998z M110.8593826,11.9843998c-1.1035004,0-2-0.8955002-2-1.9995394   c0-1.1049805,0.8964996-2.0004807,2-2.0004807s2,0.8955002,2,2.0004807   C112.8593826,11.0888996,111.962883,11.9843998,110.8593826,11.9843998z"></path><g><rect x="100" y="116" width="24" height="4"></rect></g><g><rect x="100" y="84" width="24" height="4"></rect></g><g><path d="M107,62H42c-0.5518112,0-1,0.4487-1,1v16.0005035h9c6.6171875,0,12,5.3832932,12,12v3.3324966h30V84    c0-6.6166992,5.3827896-12,12-12h4v-9C108,62.4487,107.5517883,62,107,62z"></path><path d="M109,54H41c-4.4004135,0-8,3.6001015-8,8v17.0005035h4V63c0-2.7612,2.2382889-5,5-5h65c2.7616882,0,5,2.2388,5,5v9h5V62    C117,57.6001015,113.400383,54,109,54z"></path><path d="M92,106v-7.6669998h-4V102H66v-3.6669998h-4V106h7v4h-5c-1.1045113,0-2,0.8955002-2,2s0.8954887,2,2,2h22    c1.1044846,0,2-0.8955002,2-2s-0.8955154-2-2-2h-5v-4H92z M77,110h-4v-4h4V110z"></path></g><g><path d="M48,91.4994965H9c-0.5518112,0-1,0.4487-1,1v19.8340073c0,0.5513,0.4481888,1,1,1h39c0.5517883,0,1-0.4487,1-1V92.4994965    C49,91.9481964,48.5517883,91.4994965,48,91.4994965z"></path><path d="M50,83.0005035H8c-4.4004116,0-8,3.6000977-8,8v22c0,4.3998947,3.5995886,8,8,8h42c4.4003868,0,8-3.6001053,8-8v-22    C58,86.6006012,54.4003868,83.0005035,50,83.0005035z M53,112.3335037c0,2.7612-2.2383118,5-5,5H9c-2.7617116,0-5-2.2388-5-5    V92.4994965c0-2.7612,2.2382884-5,5-5h39c2.7616882,0,5,2.2388,5,5V112.3335037z"></path></g></g></svg>