<svg height='300px' width='300px'  fill="#000000" xmlns="http://www.w3.org/2000/svg" xmlns:xlink="http://www.w3.org/1999/xlink" version="1.1" x="0px" y="0px" viewBox="0 0 84.033 100" enable-background="new 0 0 84.033 100" xml:space="preserve"><g><path fill="none" d="M41.455,37.904c6.959,0,12.689-7.685,13.429-17.561c0.094-0.638,0.146-1.291,0.154-1.953l-2.173,2.495   c1.199-2.654-3.07-9.407-3.07-9.407c-7.19,5.201-17.883,0-17.883,0c-3.229,1.273-1.7,10.349-1.7,10.349   c-0.805-0.562-1.543-0.855-2.146-1.005C28.954,30.467,34.61,37.904,41.455,37.904z"></path><path d="M39.777,48.881h0.002h3.908h4.195h22.221c-3.167-5.699-8.99-9.718-15.813-10.341c-0.081,3.687-5.544,6.662-12.275,6.662   c-6.729,0-12.192-2.975-12.272-6.662c-6.822,0.623-12.646,4.642-15.813,10.341h21.823H39.777z"></path><path d="M26.158,20.261c0.011,0.146,0.024,0.291,0.037,0.436c0.976,11.042,7.437,19.572,15.26,19.572   c7.928,0,14.454-8.753,15.298-20.003c0.117-0.808,0.178-1.635,0.178-2.478s-0.061-1.669-0.178-2.478   C55.617,7.491,49.201,1.5,41.455,1.5S27.29,7.495,26.158,15.318c-0.117,0.806-0.176,1.631-0.176,2.471   c0,0.342,0.013,0.68,0.032,1.016C26.043,19.297,26.09,19.783,26.158,20.261z M31.912,11.478c0,0,10.693,5.201,17.883,0   c0,0,4.27,6.753,3.07,9.407l2.173-2.495c-0.009,0.662-0.061,1.315-0.154,1.953c-0.74,9.875-6.47,17.561-13.429,17.561   c-6.845,0-12.5-7.437-13.389-17.082c0.603,0.15,1.341,0.444,2.146,1.005C30.212,21.827,28.683,12.751,31.912,11.478z"></path></g><path d="M73.951,94.245H10.082c-0.9,0-1.627,0.729-1.627,1.628c0,0.897,0.727,1.627,1.627,1.627h63.869  c0.897,0,1.627-0.729,1.627-1.627C75.576,94.975,74.849,94.245,73.951,94.245z"></path><path d="M77.866,49.88h-7.228h-0.536H47.882h-4.195h-3.908h-0.002h-4.024H13.93h-0.371H6.167c-2.102,0-3.804,1.703-3.804,3.803  L9.969,89.48c0,2.101,1.704,3.803,3.806,3.803h56.484c2.101,0,3.804-1.702,3.804-3.804l7.607-35.796  C81.67,51.584,79.967,49.88,77.866,49.88z M41.553,73.939c-1.117,0-2.022-0.905-2.022-2.022c0-0.405,0.122-0.782,0.328-1.099  c0.36-0.555,0.983-0.924,1.694-0.924c0.139,0,0.275,0.014,0.406,0.041c0.249,0.051,0.479,0.15,0.685,0.283  c0.013,0.008,0.026,0.014,0.038,0.021c0.068,0.047,0.128,0.104,0.189,0.157c0.036,0.03,0.077,0.058,0.11,0.091  c0.034,0.034,0.061,0.075,0.093,0.111c0.053,0.062,0.108,0.12,0.154,0.188c0.006,0.01,0.011,0.021,0.018,0.031  c0.002,0.003,0.003,0.006,0.004,0.009c0.132,0.205,0.231,0.435,0.282,0.683c0.027,0.132,0.041,0.268,0.041,0.407  C43.573,73.034,42.67,73.939,41.553,73.939z"></path></svg>