<svg height='300px' width='300px'  fill="#000000" xmlns="http://www.w3.org/2000/svg" xmlns:xlink="http://www.w3.org/1999/xlink" version="1.1" x="0px" y="0px" viewBox="0 0 16 16" style="enable-background:new 0 0 16 16;" xml:space="preserve"><path d="M10,9L9.684,8.368c0.416-0.614,0.737-1.4,0.958-2.176c0.216-0.095,0.434-0.406,0.543-0.812  c0.137-0.511,0.046-0.973-0.196-1.074C10.996,4.198,11,4.094,11,4c0-1.068-0.39-1.842-1-2.34V1H8C6.343,1,5,2,5,4  c0,0.094,0.004,0.198,0.011,0.305C4.769,4.406,4.678,4.868,4.815,5.379c0.109,0.406,0.327,0.717,0.543,0.812  C5.579,6.968,5.9,7.754,6.316,8.368L6,9l-3.447,1.724C2.214,10.893,2,11.239,2,11.618V14h12v-2.382c0-0.379-0.214-0.725-0.553-0.894  L10,9z"></path></svg>