<svg height='300px' width='300px'  fill="#000000" xmlns="http://www.w3.org/2000/svg" xmlns:xlink="http://www.w3.org/1999/xlink" xml:space="preserve" version="1.1" style="shape-rendering:geometricPrecision;text-rendering:geometricPrecision;image-rendering:optimizeQuality;" viewBox="0 0 231 231" x="0px" y="0px" fill-rule="evenodd" clip-rule="evenodd"><defs><style type="text/css">
   
    .fil0 {fill:#000000}
   
  </style></defs><g><path class="fil0" d="M84 29l-23 -23c-18,-18 -35,7 -48,19 -13,13 -16,32 -10,48 29,70 85,126 155,155 16,7 35,3 48,-10 13,-13 37,-30 19,-48l-23 -23c-14,-14 -25,-5 -33,8 -5,9 -17,14 -27,10 -39,-15 -60,-37 -75,-76 -4,-10 0,-22 9,-27 13,-7 23,-18 8,-33z"></path></g></svg>