<svg height='300px' width='300px'  fill="#000000" xmlns="http://www.w3.org/2000/svg" data-name="Layer 1" viewBox="0 0 100 100" x="0px" y="0px"><title>CREDITCARD(GLYPH)</title><path d="M93,56.5,51.73,15.27a.93.93,0,0,0-1.32,0l-3.09,3.09L89.87,60.9,93,57.81A.93.93,0,0,0,93,56.5Z"></path><path d="M44.2,21.48,77.44,54.72a3.36,3.36,0,0,1,0,4.75l-1.22,1.22,6.93,6.93,4.6-4.6L45.21,20.48Z"></path><path d="M67.9,69l2.45,2.45a.93.93,0,0,1,0,1.32L66.11,77a.93.93,0,0,1-1.32,0l-2.45-2.45-3.9,3.9,6.28,6.28a.93.93,0,0,0,1.32,0l15-15L74.1,62.81Z"></path><path d="M47.92,66.74a3.67,3.67,0,0,0-3.46,3.46,3.67,3.67,0,0,0,3.46-3.46Z"></path><path d="M46.85,63.85a3.73,3.73,0,0,0-5.28,5.28,3.68,3.68,0,0,0,.91.65,5.7,5.7,0,0,1,5-5A3.68,3.68,0,0,0,46.85,63.85Z"></path><path d="M32.12,35.77a1.5,1.5,0,0,1,2.12-2.12L67.34,66.74,76,58.05a1.36,1.36,0,0,0,0-1.92L35.4,15.51a1.36,1.36,0,0,0-1.92,0l-3.43,3.43L56.13,45A1.5,1.5,0,1,1,54,47.14L27.93,21.06,7.17,41.83a1.36,1.36,0,0,0,0,1.92L47.79,84.37a1.36,1.36,0,0,0,1.92,0L65.22,68.86Zm27,14.32a1.5,1.5,0,0,1,2.12,0l4.86,4.86a1.5,1.5,0,1,1-2.12,2.12l-4.86-4.86A1.5,1.5,0,0,1,59.08,50.09ZM25.66,44.78,22.5,47.94a1.36,1.36,0,0,1-1.92,0L16.23,43.6a1.36,1.36,0,0,1,0-1.92l3.16-3.16a1.36,1.36,0,0,1,1.92,0l4.34,4.34A1.36,1.36,0,0,1,25.66,44.78ZM44.11,74.5A5.7,5.7,0,0,1,42.65,72a5.73,5.73,0,1,1,7.07-7.07,5.73,5.73,0,1,1-5.61,9.57Z"></path><path d="M49.9,67.16a5.7,5.7,0,0,1-5,5,3.68,3.68,0,0,0,.65.91,3.73,3.73,0,0,0,5.28-5.28A3.68,3.68,0,0,0,49.9,67.16Z"></path></svg>