<svg height='300px' width='300px'  fill="#000000" xmlns="http://www.w3.org/2000/svg" xmlns:xlink="http://www.w3.org/1999/xlink" version="1.1" x="0px" y="0px" viewBox="0 0 512 512" style="enable-background:new 0 0 512 512;" xml:space="preserve"><g><g><g><g><rect x="136" y="186" width="230" height="40"></rect><rect x="326" y="326" width="70" height="10"></rect><rect x="76" y="186" width="40" height="40"></rect><path d="M156,36H36v60h120V36z M76,76H56V56h20V76z M106,76H86V56h20V76z M136,76h-20V56h20V76z"></path><rect x="386" y="186" width="50" height="40"></rect><polygon points="123.232,336 168.769,336 146,296.156     "></polygon><path d="M276,56h200V36H176v60h300V76H276c-5.522,0-10-4.477-10-10S270.478,56,276,56z"></path><path d="M36,476h440v-30H96c-5.522,0-10-4.477-10-10s4.478-10,10-10h380V116H36V476z M56,176c0-5.523,4.478-10,10-10h380      c5.522,0,10,4.477,10,10v210c0,5.523-4.478,10-10,10H66c-5.522,0-10-4.477-10-10V176z"></path><path d="M436,246H76v130h360V246z M346,266h30c5.522,0,10,4.477,10,10s-4.478,10-10,10h-30c-5.522,0-10-4.477-10-10      S340.478,266,346,266z M256,266h60c5.522,0,10,4.477,10,10s-4.478,10-10,10h-60c-5.522,0-10-4.477-10-10S250.478,266,256,266z       M186.021,356c-0.006,0-0.013,0-0.021,0h-80c-3.564,0-6.859-1.897-8.648-4.98c-1.79-3.084-1.803-6.886-0.034-9.98l40-70      c1.781-3.116,5.095-5.039,8.683-5.039c3.589,0,6.902,1.923,8.683,5.039l39.703,69.48c1.033,1.574,1.635,3.457,1.635,5.48      C196.021,351.523,191.543,356,186.021,356z M196,276c0-5.523,4.478-10,10-10h20c5.523,0,10,4.477,10,10s-4.477,10-10,10h-20      C200.478,286,196,281.523,196,276z M276,326h-60c-5.522,0-10-4.477-10-10s4.478-10,10-10h60c5.522,0,10,4.477,10,10      S281.522,326,276,326z M416,346c0,5.523-4.478,10-10,10h-90c-5.522,0-10-4.477-10-10v-30c0-5.523,4.478-10,10-10h90      c5.522,0,10,4.477,10,10V346z"></path></g></g></g></g></svg>